# xmcd CD database file
#
# Track frame offsets:
#	150
#	31390
#	57735
#	76042
#	96890
#	126712
#	151052
#	174547
#	186822
#	206810
#	218560
#	243867
#	260107
#	284072
#
# Disc length: 4200 seconds
#
# Revision: 2
# Processed by: cddbd v1.5.2PL0 Copyright (c) Steve Scherf et al.
# Submitted via: CDex 1.51
#
DISCID=d110660e
DTITLE=Gerry Mulligan  - Vol. 141 - Gerry Mulligan Sextet 1955 - 1956
DYEAR=1964
DGENRE=Jazz
TTITLE0=Igloo
TTITLE1=Lollypop
TTITLE2=Makin' whoopee
TTITLE3=Nights on the turntable
TTITLE4=Broadway
TTITLE5=Everything happens to me
TTITLE6=The lady is a tramp
TTITLE7=Sweet and lovely
TTITLE8=Moon mist - In a sentimental mood
TTITLE9=Bernie's tune
TTITLE10=Demanton
TTITLE11=La plus que lente
TTITLE12=Westwood walk
TTITLE13=Elevation
EXTD=YEAR: 1964
EXTT0=
EXTT1=
EXTT2=
EXTT3=
EXTT4=
EXTT5=
EXTT6=
EXTT7=
EXTT8=
EXTT9=
EXTT10=
EXTT11=
EXTT12=
EXTT13=
PLAYORDER=
